<svg width="100%" height="100%" viewBox="0 0 54 66" fill="none" xmlns="http://www.w3.org/2000/svg">
<g filter="url(#filter0_di_1_314)">
<path d="M17.493 9.88732C17.493 4.63673 21.7494 0.380281 27 0.380281C32.2506 0.380281 36.507 4.63673 36.507 9.88732V25.0986C36.507 30.3492 32.2506 34.6056 27 34.6056C21.7494 34.6056 17.493 30.3492 17.493 25.0986V9.88732Z" fill="url(#paint0_linear_1_314)" shape-rendering="crispEdges"/>
<path d="M24.1479 43.9002V46.9648C24.1479 48.54 25.4248 49.8169 27 49.8169C28.5752 49.8169 29.8521 48.54 29.8521 46.9648V43.9002C39.0003 42.5241 46.0141 34.6304 46.0141 25.0986C46.0141 23.5234 44.7371 22.2465 43.162 22.2465C41.5868 22.2465 40.3099 23.5234 40.3099 25.0986C40.3099 31.4825 35.0889 36.6713 28.6681 36.6681C22.2521 36.6649 17.0423 31.4651 17.0423 25.0986C17.0423 23.5234 15.7653 22.2465 14.1901 22.2465C12.6149 22.2465 11.338 23.5234 11.338 25.0986C11.338 34.6349 18.3592 42.5319 27.8521 43.9023V46.9648C27.8521 47.3507 27.5341 47.662 27.1507 47.662H26.8493C26.4659 47.662 26.1479 47.3507 26.1479 46.9648V43.9002C17.3637 42.5359 10.4085 34.1535 10.4085 25.0986C10.4085 23.0076 12.1032 21.3169 14.1901 21.3169C16.2771 21.3169 17.9718 23.0076 17.9718 25.0986C17.9718 30.9492 22.7692 35.7357 28.6665 35.7385C34.569 35.7414 39.3803 30.9667 39.3803 25.0986C39.3803 23.0076 41.075 21.3169 43.162 21.3169C45.2489 21.3169 46.9437 23.0076 46.9437 25.0986C46.9437 35.1493 39.9963 42.5263 29.8521 43.9002Z" fill="url(#paint1_linear_1_314)" fill-opacity="0.3" shape-rendering="crispEdges"/>
<rect x="18.6549" y="47.7042" width="16.6901" height="8.88169" rx="4.44085" fill="url(#paint2_linear_1_314)" shape-rendering="crispEdges"/>
</g>
<defs>
<filter id="filter0_di_1_314" x="10.4085" y="0.380281" width="36.5352" height="64.8056" filterUnits="userSpaceOnUse" color-interpolation-filters="sRGB">
<feFlood flood-opacity="0" result="BackgroundImageFix"/>
<feColorMatrix in="SourceAlpha" type="matrix" values="0 0 0 0 0 0 0 0 0 0 0 0 0 0 0 0 0 0 127 0" result="hardAlpha"/>
<feOffset dy="6.61972"/>
<feGaussianBlur stdDeviation="0.946479"/>
<feComposite in2="hardAlpha" operator="out"/>
<feColorMatrix type="matrix" values="0 0 0 0 0 0 0 0 0 0 0 0 0 0 0 0 0 0 0.25 0"/>
<feBlend mode="normal" in2="BackgroundImageFix" result="effect1_dropShadow_1_314"/>
<feBlend mode="normal" in="SourceGraphic" in2="effect1_dropShadow_1_314" result="shape"/>
<feColorMatrix in="SourceAlpha" type="matrix" values="0 0 0 0 0 0 0 0 0 0 0 0 0 0 0 0 0 0 127 0" result="hardAlpha"/>
<feOffset dy="-0.946479"/>
<feGaussianBlur stdDeviation="0.946479"/>
<feComposite in2="hardAlpha" operator="arithmetic" k2="-1" k3="1"/>
<feColorMatrix type="matrix" values="0 0 0 0 1 0 0 0 0 1 0 0 0 0 1 0 0 0 0.25 0"/>
<feBlend mode="normal" in2="shape" result="effect2_innerShadow_1_314"/>
</filter>
<linearGradient id="paint0_linear_1_314" x1="27" y1="0.380281" x2="27" y2="34.6056" gradientUnits="userSpaceOnUse">
<stop stop-color="#3B82F6"/>
<stop offset="1" stop-color="#1E40AF"/>
</linearGradient>
<linearGradient id="paint1_linear_1_314" x1="28.6761" y1="21.3169" x2="28.6761" y2="49.8169" gradientUnits="userSpaceOnUse">
<stop stop-color="white"/>
<stop offset="1" stop-color="white" stop-opacity="0"/>
</linearGradient>
<linearGradient id="paint2_linear_1_314" x1="27" y1="47.7042" x2="27" y2="56.5859" gradientUnits="userSpaceOnUse">
<stop stop-color="#60A5FA"/>
<stop offset="1" stop-color="#2563EB"/>
</linearGradient>
</defs>
</svg>