<svg width="100%" height="100%" viewBox="0 0 103 103" fill="none" xmlns="http://www.w3.org/2000/svg">
<g filter="url(#filter0_di_1_291)">
<rect x="13" y="9" width="77" height="77" rx="38.5" fill="url(#paint0_linear_1_291)" shape-rendering="crispEdges"/>
<rect x="12.5" y="8.5" width="78" height="78" rx="39" stroke="url(#paint1_linear_1_291)" shape-rendering="crispEdges"/>
<circle cx="51.5" cy="47.5" r="28.5" fill="#FF3B30" fill-opacity="0.8"/>
<circle cx="51.5" cy="47.5" r="29" stroke="url(#paint2_linear_1_291)" stroke-opacity="0.8"/>
<g filter="url(#filter1_di_1_291)">
<path d="M47.2142 40.1428C47.2142 37.7758 49.133 35.8571 51.4999 35.8571C53.8669 35.8571 55.7857 37.7758 55.7857 40.1428V46.9999C55.7857 49.3668 53.8669 51.2856 51.4999 51.2856C49.133 51.2856 47.2142 49.3668 47.2142 46.9999V40.1428Z" fill="url(#paint3_linear_1_291)" shape-rendering="crispEdges"/>
<path d="M50.2142 55.4756V56.8571C50.2142 57.5671 50.7899 58.1428 51.4999 58.1428C52.21 58.1428 52.7857 57.5671 52.7857 56.8571V55.4756C56.9096 54.8552 60.0714 51.2968 60.0714 46.9999C60.0714 46.2898 59.4957 45.7142 58.7857 45.7142C58.0756 45.7142 57.4999 46.2898 57.4999 46.9999C57.4999 50.3136 54.8137 52.9999 51.4999 52.9999C48.1862 52.9999 45.4999 50.3136 45.4999 46.9999C45.4999 46.2898 44.9243 45.7142 44.2142 45.7142C43.5041 45.7142 42.9285 46.2898 42.9285 46.9999C42.9285 51.2968 46.0903 54.8552 50.2142 55.4756Z" fill="url(#paint4_linear_1_291)" shape-rendering="crispEdges"/>
<path d="M58.7859 45.6285C59.5431 45.6287 60.1569 46.2424 60.157 46.9996C60.157 51.3143 57.0005 54.8903 52.8709 55.5475V56.8571C52.8709 57.6145 52.2572 58.2281 51.4998 58.2281C50.7424 58.2281 50.1287 57.6144 50.1287 56.8571V55.5465C45.9993 54.8891 42.8426 51.3141 42.8426 46.9996C42.8427 46.2423 43.4573 45.6285 44.2146 45.6285C44.9718 45.6288 45.5856 46.2425 45.5857 46.9996C45.5857 50.266 48.2335 52.9146 51.4998 52.9147C54.7662 52.9147 57.4139 50.266 57.4139 46.9996C57.414 46.2423 58.0286 45.6285 58.7859 45.6285ZM51.4998 35.7711C53.9141 35.7711 55.8709 37.7289 55.8709 40.1432V46.9996C55.8709 49.4139 53.9141 51.3717 51.4998 51.3717C49.0856 51.3716 47.1287 49.4139 47.1287 46.9996V40.1432C47.1287 37.729 49.0856 35.7712 51.4998 35.7711Z" stroke="url(#paint5_linear_1_291)" stroke-width="0.171428" stroke-linecap="round" shape-rendering="crispEdges"/>
</g>
</g>
<defs>
<filter id="filter0_di_1_291" x="0" y="-2" width="103" height="105" filterUnits="userSpaceOnUse" color-interpolation-filters="sRGB">
<feFlood flood-opacity="0" result="BackgroundImageFix"/>
<feColorMatrix in="SourceAlpha" type="matrix" values="0 0 0 0 0 0 0 0 0 0 0 0 0 0 0 0 0 0 127 0" result="hardAlpha"/>
<feOffset dy="4"/>
<feGaussianBlur stdDeviation="6"/>
<feComposite in2="hardAlpha" operator="out"/>
<feColorMatrix type="matrix" values="0 0 0 0 0 0 0 0 0 0 0 0 0 0 0 0 0 0 0.12 0"/>
<feBlend mode="normal" in2="BackgroundImageFix" result="effect1_dropShadow_1_291"/>
<feBlend mode="normal" in="SourceGraphic" in2="effect1_dropShadow_1_291" result="shape"/>
<feColorMatrix in="SourceAlpha" type="matrix" values="0 0 0 0 0 0 0 0 0 0 0 0 0 0 0 0 0 0 127 0" result="hardAlpha"/>
<feOffset dy="4"/>
<feGaussianBlur stdDeviation="4"/>
<feComposite in2="hardAlpha" operator="arithmetic" k2="-1" k3="1"/>
<feColorMatrix type="matrix" values="0 0 0 0 1 0 0 0 0 1 0 0 0 0 1 0 0 0 0.25 0"/>
<feBlend mode="normal" in2="shape" result="effect2_innerShadow_1_291"/>
</filter>
<filter id="filter1_di_1_291" x="34.1857" y="27.1142" width="34.6285" height="39.7714" filterUnits="userSpaceOnUse" color-interpolation-filters="sRGB">
<feFlood flood-opacity="0" result="BackgroundImageFix"/>
<feColorMatrix in="SourceAlpha" type="matrix" values="0 0 0 0 0 0 0 0 0 0 0 0 0 0 0 0 0 0 127 0" result="hardAlpha"/>
<feOffset dy="3.42855"/>
<feGaussianBlur stdDeviation="1.71428"/>
<feComposite in2="hardAlpha" operator="out"/>
<feColorMatrix type="matrix" values="0 0 0 0 0 0 0 0 0 0 0 0 0 0 0 0 0 0 0.12 0"/>
<feBlend mode="normal" in2="BackgroundImageFix" result="effect1_dropShadow_1_291"/>
<feBlend mode="normal" in="SourceGraphic" in2="effect1_dropShadow_1_291" result="shape"/>
<feColorMatrix in="SourceAlpha" type="matrix" values="0 0 0 0 0 0 0 0 0 0 0 0 0 0 0 0 0 0 127 0" result="hardAlpha"/>
<feOffset dy="3.42855"/>
<feGaussianBlur stdDeviation="2.14285"/>
<feComposite in2="hardAlpha" operator="arithmetic" k2="-1" k3="1"/>
<feColorMatrix type="matrix" values="0 0 0 0 1 0 0 0 0 1 0 0 0 0 1 0 0 0 0.4 0"/>
<feBlend mode="normal" in2="shape" result="effect2_innerShadow_1_291"/>
</filter>
<linearGradient id="paint0_linear_1_291" x1="13" y1="9" x2="96.8296" y2="17.3383" gradientUnits="userSpaceOnUse">
<stop stop-color="white" stop-opacity="0.1"/>
<stop offset="1" stop-color="white" stop-opacity="0.4"/>
</linearGradient>
<linearGradient id="paint1_linear_1_291" x1="13" y1="9" x2="90" y2="86" gradientUnits="userSpaceOnUse">
<stop stop-color="white"/>
<stop offset="0.434408" stop-color="white" stop-opacity="0"/>
<stop offset="1" stop-color="white"/>
</linearGradient>
<linearGradient id="paint2_linear_1_291" x1="23" y1="19" x2="80" y2="76" gradientUnits="userSpaceOnUse">
<stop stop-color="white"/>
<stop offset="0.5" stop-color="white" stop-opacity="0"/>
<stop offset="1" stop-color="white"/>
</linearGradient>
<linearGradient id="paint3_linear_1_291" x1="42.9285" y1="35.8571" x2="60.0714" y2="58.1428" gradientUnits="userSpaceOnUse">
<stop stop-color="white" stop-opacity="0.1"/>
<stop offset="1" stop-color="white" stop-opacity="0.4"/>
</linearGradient>
<linearGradient id="paint4_linear_1_291" x1="42.9285" y1="35.8571" x2="60.0714" y2="58.1428" gradientUnits="userSpaceOnUse">
<stop stop-color="white" stop-opacity="0.1"/>
<stop offset="1" stop-color="white" stop-opacity="0.4"/>
</linearGradient>
<linearGradient id="paint5_linear_1_291" x1="43.7857" y1="40.1428" x2="58.7857" y2="54.2856" gradientUnits="userSpaceOnUse">
<stop stop-color="white"/>
<stop offset="0.5" stop-color="white" stop-opacity="0"/>
<stop offset="1" stop-color="white"/>
</linearGradient>
</defs>
</svg>